<svg t="1590995751737" class="icon" viewBox="0 0 1024 1024" version="1.1" xmlns="http://www.w3.org/2000/svg" p-id="30172" width="200" height="200"><path d="M120.816 728.208c30.336 24 62 44.912 94.544 62.976 43.072-55.744 67.632-107.552 82.736-155.504-42.096 3.6-89.216 3.344-142.816-2.608C120.256 625.76 32.976 658.72 120.816 728.208z" p-id="30173" fill="#36ab60" data-spm-anchor-id="a313x.7781069.0.i3" class="selected"></path><path d="M871.776 793.408c91.872-59.44 34.512-191.152-44.864-261.456-19.6-17.36-37.44-30.208-54.064-39.472-21.776 111.408-81.696 222.192-171.136 315.008-24.832 25.776-51.328 49.456-79.184 71.104C653.168 884.992 777.76 854.256 871.776 793.408zM796.608 557.552c15.536-6.992 41.344 16.704 57.664 52.944 16.32 36.24 16.96 71.28 1.424 78.272-15.536 6.992-41.344-16.704-57.664-52.944C781.712 599.584 781.072 564.544 796.608 557.552z" p-id="30174" fill="#36ab60" data-spm-anchor-id="a313x.7781069.0.i2" class="selected"></path><path d="M159.744 899.216c-25.184 19.536-52.928 91.376 19.008 91.376 8.8 0 19.12-1.072 31.104-3.456 98.992-19.68 188.016-59.728 263.968-112.64 145.488-101.36 242.816-250.16 269.024-395.136 1.312-7.28 2.464-14.544 3.424-21.808 7.168-54.4-23.92-91.92-69.856-114.016-9.648 12.304-19.872 24.128-30.736 35.136 8.304 7.952 12.56 16.176 10.496 23.296-4.736 16.352-39.52 20.656-77.696 9.6-38.176-11.056-65.264-33.296-60.528-49.648 3.296-11.376 21.248-16.752 44.624-15.36 3.152-7.6 6.64-16.592 10.304-26.864-4.208-0.16-8.416-0.352-12.608-0.352-14.336 0-28.528 0.976-42.176 2.912-194.656 27.584-137.312 141.52-185.44 309.504-15.2 53.072-41.136 111.536-88.688 174.384C221.216 836.208 193.744 867.232 159.744 899.216z" p-id="30175" fill="#d81e06"></path><path d="M594.688 305.28c-1.712 5.392-3.44 10.624-5.152 15.536-3.632 10.416-7.168 19.712-10.416 27.712-8.4 20.704-14.704 32.688-14.704 32.688l40.272 12.608c9.856-7.584 19.28-16.048 28.32-25.104 9.904-9.92 19.296-20.608 28.176-31.76 3.424-4.304 6.768-8.672 10.032-13.104 3.248-4.368 6.4-8.8 9.488-13.264 59.552-85.984 91.296-185.44 91.296-185.44-18.48-19.792-49.248-30.368-79.68-30.368-27.36 0-54.448 8.576-72.064 26.72 3.632 62.976-7.6 122.208-20.912 168.272C597.824 295.104 596.272 300.32 594.688 305.28z" p-id="30176" fill="#d81e06"></path></svg>